<svg id="Capa_1" enable-background="new 0 0 512 512" height="512" viewBox="0 0 512 512" width="512" xmlns="http://www.w3.org/2000/svg"><g><path d="m121.95 402.244h268.1v40.179h-268.1z" fill="#3f6d8e"/><path d="m121.95 405.335h45.349v40.179h-45.349z" fill="#365e7d"/><path d="m485.404 39.258h-458.808c-14.627 0-26.596 11.968-26.596 26.596v314.858c0 14.628 11.968 26.596 26.596 26.596h458.807c14.628 0 26.596-11.968 26.596-26.596v-314.858c.001-14.628-11.967-26.596-26.595-26.596z" fill="#477b9e"/><path d="m45.349 380.712v-314.858c0-14.628 11.968-26.596 26.596-26.596h-45.349c-14.628 0-26.596 11.968-26.596 26.596v314.858c0 14.628 11.968 26.596 26.596 26.596h45.349c-14.628.001-26.596-11.968-26.596-26.596z" fill="#3f6d8e"/><path d="m425.039 440.026h-338.078c-4.351 0-7.878 3.527-7.878 7.878v16.961c0 4.351 3.527 7.878 7.878 7.878h338.079c4.351 0 7.878-3.527 7.878-7.878v-16.961c-.001-4.351-3.528-7.878-7.879-7.878z" fill="#477b9e"/><path d="m124.431 464.865v-16.961c0-4.351 3.527-7.878 7.878-7.878h-45.348c-4.351 0-7.878 3.527-7.878 7.878v16.961c0 4.351 3.527 7.878 7.878 7.878h45.348c-4.351-.001-7.878-3.528-7.878-7.878z" fill="#3f6d8e"/><path d="m472.796 71.975h-433.592c-3.583 0-6.487 2.904-6.487 6.487v289.643c0 3.583 2.904 6.487 6.487 6.487h433.592c3.583 0 6.487-2.904 6.487-6.487v-289.643c0-3.583-2.905-6.487-6.487-6.487z" fill="#7fb3fa"/><path d="m78.066 368.105v-289.643c0-3.583 2.904-6.487 6.487-6.487h-45.349c-3.583 0-6.487 2.904-6.487 6.487v289.643c0 3.583 2.904 6.487 6.487 6.487h45.349c-3.583 0-6.487-2.905-6.487-6.487z" fill="#64a6f4"/><path d="m381.211 131.311h-27.907v183.944h27.907c4.129 0 7.476-3.347 7.476-7.476v-168.991c0-4.13-3.347-7.477-7.476-7.477z" fill="#477b9e"/><path d="m123.313 138.788v168.991c0 4.129 3.347 7.476 7.476 7.476h27.907v-183.944h-27.907c-4.129 0-7.476 3.347-7.476 7.477z" fill="#477b9e"/><g fill="#365e7d"><path d="m123.313 234.156h35.383v15.453h-35.383z"/><path d="m123.313 196.956h35.383v15.453h-35.383z"/><path d="m123.313 159.755h35.383v15.453h-35.383z"/><path d="m123.313 271.357h35.383v15.453h-35.383z"/><path d="m353.304 196.956h35.383v15.453h-35.383z"/><path d="m353.304 271.357h35.383v15.453h-35.383z"/><path d="m353.304 234.156h35.383v15.453h-35.383z"/><path d="m353.304 159.755h35.383v15.453h-35.383z"/></g><path d="m157.628 131.311h196.576v183.944h-196.576z" fill="#f87c68"/><path d="m157.628 131.311h26.271v183.944h-26.271z" fill="#ec625e"/><path d="m281.938 217.297-44.509-27.389c-4.683-2.882-10.713.488-10.713 5.986v54.778c0 5.499 6.03 8.868 10.713 5.986l44.509-27.389c4.461-2.744 4.461-9.228 0-11.972z" fill="#dbedff"/></g></svg>